HIERARCHY
ROOT Hips
{
  OFFSET 3.13124 94.3669 -3.18751
  CHANNELS  6 Xposition Yposition Zposition Zrotation Xrotation Yrotation
  JOINT LeftUpLeg
  {
    OFFSET 8.64259 1.95398 -2.38835
    CHANNELS 3 Zrotation Xrotation Yrotation
    JOINT LeftLeg
    {
      OFFSET 43.7702 0 0
      CHANNELS 3 Zrotation Xrotation Yrotation
      JOINT LeftFoot
      {
        OFFSET 40.6238 0 0
        CHANNELS 3 Zrotation Xrotation Yrotation
        JOINT LeftToeBase
        {
          OFFSET 12.7242 0 0
          CHANNELS 3 Zrotation Xrotation Yrotation
          End Site
          {
            OFFSET 0 0 0
          }
        }
      }
    }
  }
  JOINT RightUpLeg
  {
    OFFSET -8.2249 1.95398 -2.59336
    CHANNELS 3 Zrotation Xrotation Yrotation
    JOINT RightLeg
    {
      OFFSET 43.5653 0 0
      CHANNELS 3 Zrotation Xrotation Yrotation
      JOINT RightFoot
      {
        OFFSET 40.6238 0 0
        CHANNELS 3 Zrotation Xrotation Yrotation
        JOINT RightToeBase
        {
          OFFSET 12.7242 0 0
          CHANNELS 3 Zrotation Xrotation Yrotation
          End Site
          {
            OFFSET 0 0 0
          }
        }
      }
    }
  }
  JOINT Spine
  {
    OFFSET 0.165834 0.87714 6.61349
    CHANNELS 3 Zrotation Xrotation Yrotation
    JOINT Spine1
    {
      OFFSET 7.38962 1.71661e-005 0
      CHANNELS 3 Zrotation Xrotation Yrotation
      JOINT Spine2
      {
        OFFSET 11.9445 1.14441e-005 0
        CHANNELS 3 Zrotation Xrotation Yrotation
        JOINT Spine3
        {
          OFFSET 14.7254 4.19617e-005 0
          CHANNELS 3 Zrotation Xrotation Yrotation
          JOINT Spine4
          {
            OFFSET 10.9679 0 0
            CHANNELS 3 Zrotation Xrotation Yrotation
            JOINT RightShoulder
            {
              OFFSET 2.46616 -1.6653 3.69651
              CHANNELS 3 Zrotation Xrotation Yrotation
              JOINT RightArm
              {
                OFFSET 13.0012 0 0
                CHANNELS 3 Zrotation Xrotation Yrotation
                JOINT RightForeArm
                {
                  OFFSET 28.7848 1.52588e-005 0
                  CHANNELS 3 Zrotation Xrotation Yrotation
                  JOINT RightHand
                  {
                    OFFSET 26.5688 1.52588e-005 0
                    CHANNELS 3 Zrotation Xrotation Yrotation
                    End Site
                    {
                      OFFSET 0 0 0
                    }
                  }
                }
              }
            }
            JOINT LeftShoulder
            {
              OFFSET 2.38034 -1.29275 -3.75231
              CHANNELS 3 Zrotation Xrotation Yrotation
              JOINT LeftArm
              {
                OFFSET 16.3182 6.10352e-005 0
                CHANNELS 3 Zrotation Xrotation Yrotation
                JOINT LeftForeArm
                {
                  OFFSET 27.0901 0 0
                  CHANNELS 3 Zrotation Xrotation Yrotation
                  JOINT LeftHand
                  {
                    OFFSET 24.5451 1.52588e-005 0
                    CHANNELS 3 Zrotation Xrotation Yrotation
                    End Site
                    {
                      OFFSET 0 0 0
                    }
                  }
                }
              }
            }
            JOINT Neck
            {
              OFFSET 5.0226 -0.0266342 0
              CHANNELS 3 Zrotation Xrotation Yrotation
              JOINT Head
              {
                OFFSET 6.69363 2.86102e-005 0
                CHANNELS 3 Zrotation Xrotation Yrotation
                End Site
                {
                  OFFSET 0 0 0
                }
              }
            }
          }
        }
      }
    }
  }
}
MOTION
Frames:	7
Frame Time:	0.0333333
-13.1032 96.4411 64.1771 -102.943 -70.3511 -91.2736 -169.108 9.7731 97.2874 -26.4612 -17.5544 -2.36748 51.0934 1.56138 0.626521 28.7808 2.43711e-006 -4.46296e-006 -176.285 7.95099 97.3941 -4.21862 -22.8837 -1.275 20.4251 7.00707 10.4616 28.7808 1.37255e-005 7.26515e-006 1.12623 6.60616 -89.8643 13.7355 2.18551 -2.36605 2.06431 2.08283 -2.45573 -20.4779 2.7713 -1.62833 -0.465297 2.77127 -1.62833 118.797 -46.8377 -55.3323 43.9972 -2.15387 33.4723 -9.7464 -0.424983 -91.4725 -48.7506 3.65497 -13.3687 -107.045 -55.0423 56.2324 -42.5372 2.41694 4.04163 41.1339 29.2941 -60.8527 30.6418 -5.59641 -23.2721 16.7614 -9.72464 30.8693 -21.3041 -15.3979 -18.1447 
-11.484 92.9085 65.7598 -134.948 -51.8724 -138.699 177.527 -19.167 75.2093 -23.0545 -37.5729 -9.58004 58.1794 3.68381 2.13879 28.7808 2.43711e-006 -4.46296e-006 175.63 1.51802 73.9982 -37.6643 -39.8935 -2.60224 50.637 -4.22125 -2.62114 28.7808 1.37255e-005 7.26515e-006 1.85341 9.54848 -88.8326 7.73589 4.196 2.09654 -3.92982 4.28412 1.9097 -26.4889 3.37233 3.26058 -6.47628 3.37233 3.26059 116.076 -57.6217 -62.3233 34.3041 5.68172 22.7282 1.9938 -0.286106 -92.1053 -49.5094 4.64805 -15.3661 -107.624 -54.3325 55.0511 -38.9968 0.355724 -6.42891 27.228 27.7265 -47.15 9.48662 -7.56987 -61.8908 19.9388 -9.22506 18.9593 -14.7608 -13.975 -8.41831 
-12.9838 92.5524 65.0634 -143.329 -81.7639 -136.575 -172.621 5.46651 89.4977 -30.2614 -12.7225 1.39417 64.9877 4.10014 2.24194 28.7808 2.43711e-006 -4.46296e-006 -179.676 7.95114 91.3244 -20.6965 -6.02526 -0.393819 52.2757 -2.10128 -1.15009 28.7808 1.37255e-005 7.26515e-006 -0.645065 7.50811 -89.5747 11.8466 -1.14502 -0.0285171 0.17615 -1.14479 0.0205294 -22.3627 -1.08616 -0.363122 -2.3501 -1.08618 -0.363137 108.557 -59.4866 -73.0863 29.966 8.81635 17.2805 17.9839 -4.94661 -104.113 -50.8726 2.50541 -10.4892 -99.069 -47.4626 64.3875 -39.9053 22.5836 10.5004 29.0222 -6.5499 -102.208 -7.17158 -1.10462 19.7917 17.2724 -6.57383 7.74852 -5.25066 -8.66578 2.22785 
-12.0305 93.6066 64.5655 -127.3 -80.5655 -121.384 -173.903 5.44899 88.4227 -25.8504 -15.5407 0.866836 60.342 4.19213 2.38965 28.7808 2.43711e-006 -4.46296e-006 -179.88 9.95167 90.8949 -19.9275 -5.98476 -0.39636 45.4022 -2.04849 -1.07948 28.7808 1.37255e-005 7.26515e-006 -0.469825 7.47308 -89.8252 11.921 -0.936297 -0.0820888 0.250373 -0.939019 -0.0407965 -22.2872 -0.868339 -0.357613 -2.27462 -0.868349 -0.357634 104.506 -61.4581 -78.7798 27.2642 12.2125 8.5916 18.6183 -8.58856 -111.92 -50.698 3.56355 -12.7815 -96.0564 -47.3521 68.9088 -34.5313 25.9296 5.6835 16.6403 -7.54063 -113.579 -6.89136 -1.02215 19.0977 17.7646 0.0688615 3.90171 -0.664506 -0.947314 8.68303 
-10.9939 95.9695 63.8902 -109.27 -79.8292 -103.76 -173.941 6.14646 88.6031 -20.6749 -14.5981 -0.130821 49.3341 1.56077 0.62185 28.7808 2.43711e-006 -4.46296e-006 179.95 12.3007 90.3466 -16.298 -6.26402 -0.401942 32.6049 0.0466536 1.0825 28.7808 1.37255e-005 7.26515e-006 -0.235005 7.20819 -90.0741 12.4567 -0.520573 -0.292241 0.785844 -0.532946 -0.269051 -21.7496 -0.408677 -0.43602 -1.73696 -0.40869 -0.436034 101.119 -62.0096 -83.3746 26.4666 13.5933 2.18889 9.151 -6.5598 -118.142 -48.1797 5.26892 -17.0442 -94.1196 -46.7684 71.659 -29.1565 28.3385 1.82078 2.0504 -2.08174 -125.874 -1.37969 0.0855417 19.6305 16.2485 8.56356 3.78799 1.42397 7.53898 10.5426 
-10.0434 98.4984 63.1154 -97.3741 -79.73 -92.4337 -173.843 5.65281 89.323 -13.4711 -13.2691 -1.22954 36.2302 -3.36397 -4.18871 28.7808 2.43711e-006 -4.46296e-006 179.982 11.3036 90.0781 -8.22578 1.1793 0.0358061 23.9642 2.56292 4.45944 28.7808 1.37255e-005 7.26515e-006 0.117023 7.06341 -90.5111 12.7435 0.0444662 -0.361292 1.0725 0.0284752 -0.362872 -21.4623 0.150997 -0.330102 -1.44965 0.150986 -0.330114 99.9486 -60.8385 -84.9951 26.1107 14.9048 -1.95046 2.46581 -4.56047 -127.072 -45.7385 4.64795 -16.3125 -92.7983 -45.2182 73.2559 -23.9683 29.0844 -2.48611 -9.69516 7.98919 -133.153 5.2523 0.546213 7.85928 19.7539 17.7545 4.78501 -3.21992 15.5823 10.7459 
-9.35654 100.072 62.5474 -90.5416 -81.4682 -85.7384 -173.662 6.13453 89.9342 -10.6052 -9.75693 -1.00488 28.824 -6.61724 -8.45459 28.7808 2.43711e-006 -4.46296e-006 -179.907 12.0385 90.7293 -8.61969 -7.75508 -0.45966 27.0255 5.43267 7.38838 28.7808 1.37255e-005 7.26515e-006 0.351524 7.15089 -90.7353 12.5675 0.395609 -0.65186 0.896466 0.367256 -0.669018 -21.6383 0.572879 -0.500225 -1.62569 0.57285 -0.500269 99.1988 -60.3901 -86.0427 25.7007 20.5728 0.557687 0.142869 -4.20643 -137.771 -28.759 3.65351 -19.7236 -94.2336 -45.3075 71.0515 -20.1645 -21.7732 -10.3991 -78.2339 35.2544 -98.611 -52.8732 -22.1204 40.7809 22.2198 26.9178 8.65127 -5.90588 23.0396 8.20565 
